#N canvas 1323 98 503 422 10;
#X declare -lib mrpeach;
#X obj -105 54 unpackOSC;
#X obj -105 81 pipelist;
#X obj -105 28 udpreceive 4242;
#X obj -105 107 routeOSC /test;
#X obj -94 347 makenote;
#X floatatom -61 317 0 0 0 0 - - -;
#X floatatom -24 317 0 0 0 0 - - -;
#X text -101 298 pitch;
#X floatatom 261 202 5 0 0 0 - - -;
#X floatatom -97 318 5 0 0 0 - - -;
#X obj -103 3 import mrpeach;
#X obj 283 -12 loadbang;
#X obj -61 298 r vel;
#X obj -24 298 r len;
#X obj 282 48 s vel;
#X obj 331 46 s len;
#X msg 281 20 100;
#X msg 332 21 750;
#X obj -97 182 route boundary;
#X obj 141 -12 print;
#X obj -96 231 + 30;
#X floatatom -74 209 5 0 0 0 - - -;
#X obj 2 182 route hitblock;
#X floatatom 20 204 5 0 0 0 - - -;
#X obj 0 227 + 10;
#X obj 33 349 makenote;
#X floatatom 66 319 0 0 0 0 - - -;
#X floatatom 103 319 0 0 0 0 - - -;
#X text 26 300 pitch;
#X floatatom 30 320 5 0 0 0 - - -;
#X obj 66 300 r vel;
#X obj 103 300 r len;
#X obj 33 375 noteout 2;
#X obj -94 373 noteout 1;
#X obj 265 234 pgmout 1;
#X floatatom 317 201 5 0 0 0 - - -;
#X obj 321 233 pgmout 2;
#X connect 0 0 1 0;
#X connect 0 1 1 1;
#X connect 1 0 3 0;
#X connect 2 0 0 0;
#X connect 3 0 18 0;
#X connect 3 0 22 0;
#X connect 4 0 33 0;
#X connect 4 1 33 1;
#X connect 5 0 4 1;
#X connect 6 0 4 2;
#X connect 8 0 34 0;
#X connect 9 0 4 0;
#X connect 11 0 16 0;
#X connect 11 0 17 0;
#X connect 12 0 5 0;
#X connect 13 0 6 0;
#X connect 16 0 14 0;
#X connect 17 0 15 0;
#X connect 18 0 20 0;
#X connect 20 0 9 0;
#X connect 21 0 20 1;
#X connect 22 0 24 0;
#X connect 23 0 24 1;
#X connect 24 0 29 0;
#X connect 25 0 32 0;
#X connect 25 1 32 1;
#X connect 26 0 25 1;
#X connect 27 0 25 2;
#X connect 29 0 25 0;
#X connect 30 0 26 0;
#X connect 31 0 27 0;
#X connect 35 0 36 0;
