#N canvas 1939 325 847 450 10;
#X declare -lib mrpeach;
#X obj -105 54 unpackOSC;
#X obj -105 81 pipelist;
#X obj -105 28 udpreceive 4242;
#X obj -105 107 routeOSC /test;
#X obj -114 360 makenote;
#X floatatom -81 330 0 0 0 0 - - -;
#X floatatom -44 330 0 0 0 0 - - -;
#X text -121 311 pitch;
#X floatatom 170 95 5 0 0 0 - - -;
#X floatatom -117 331 5 0 0 0 - - -;
#X obj -103 3 import mrpeach;
#X obj 198 4 loadbang;
#X obj -81 311 r vel;
#X obj -44 311 r len;
#X obj 44 60 s vel;
#X obj 93 58 s len;
#X msg 43 32 100;
#X msg 94 33 750;
#X obj -120 234 route boundary;
#X obj 56 4 print;
#X floatatom -97 261 5 0 0 0 - - -;
#X obj -21 234 route hitblock;
#X floatatom -3 256 5 0 0 0 - - -;
#X obj 13 362 makenote;
#X floatatom 46 332 0 0 0 0 - - -;
#X floatatom 83 332 0 0 0 0 - - -;
#X text 6 313 pitch;
#X floatatom 10 333 5 0 0 0 - - -;
#X obj 46 313 r vel;
#X obj 83 313 r len;
#X obj 13 388 noteout 2;
#X obj -114 386 noteout 1;
#X obj 172 124 pgmout 1;
#X floatatom 246 101 5 0 0 0 - - -;
#X obj 250 133 pgmout 2;
#X obj 117 227 route change-candidate;
#X obj 261 228 route backtrack;
#X obj 369 228 route place-tile;
#X obj 133 357 makenote;
#X floatatom 166 327 0 0 0 0 - - -;
#X floatatom 203 327 0 0 0 0 - - -;
#X text 126 308 pitch;
#X floatatom 130 328 5 0 0 0 - - -;
#X obj 166 308 r vel;
#X obj 203 308 r len;
#X floatatom 150 255 5 0 0 0 - - -;
#X floatatom 283 250 5 0 0 0 - - -;
#X obj 260 359 makenote;
#X floatatom 293 329 0 0 0 0 - - -;
#X floatatom 330 329 0 0 0 0 - - -;
#X text 253 310 pitch;
#X floatatom 257 330 5 0 0 0 - - -;
#X obj 293 310 r vel;
#X obj 330 310 r len;
#X obj 380 357 makenote;
#X floatatom 413 327 0 0 0 0 - - -;
#X floatatom 450 327 0 0 0 0 - - -;
#X text 373 308 pitch;
#X floatatom 377 328 5 0 0 0 - - -;
#X obj 413 308 r vel;
#X obj 450 308 r len;
#X obj 375 280 + 30;
#X floatatom 397 258 5 0 0 0 - - -;
#X floatatom 552 251 5 0 0 0 - - -;
#X obj 532 274 + 10;
#X obj 528 353 makenote;
#X floatatom 561 323 0 0 0 0 - - -;
#X floatatom 598 323 0 0 0 0 - - -;
#X text 521 304 pitch;
#X floatatom 525 324 5 0 0 0 - - -;
#X obj 561 304 r vel;
#X obj 598 304 r len;
#X obj 133 383 noteout 3;
#X obj 260 385 noteout 4;
#X obj 380 383 noteout 5;
#X obj 104 262 bng 15 250 50 0 empty empty empty 17 7 0 10 -262144
-1 -1;
#X floatatom 312 103 5 0 0 0 - - -;
#X obj 316 135 pgmout 3;
#X floatatom 379 107 5 0 0 0 - - -;
#X obj 380 135 pgmout 4;
#X obj 528 379 noteout 6;
#X floatatom 446 103 5 0 0 0 - - -;
#X obj 450 135 pgmout 5;
#X obj 250 255 bng 15 250 50 0 empty empty empty 17 7 0 10 -262144
-1 -1;
#X obj 359 252 bng 15 250 50 0 empty empty empty 17 7 0 10 -262144
-1 -1;
#X obj 384 162 bng 15 250 50 0 empty empty empty 17 7 0 10 -262144
-1 -1;
#X msg 444 41 121;
#X msg 363 40 48;
#X obj 255 159 bng 15 250 50 0 empty empty empty 17 7 0 10 -262144
-1 -1;
#X obj 323 159 bng 15 250 50 0 empty empty empty 17 7 0 10 -262144
-1 -1;
#X obj 451 161 bng 15 250 50 0 empty empty empty 17 7 0 10 -262144
-1 -1;
#X obj 170 154 bng 15 250 50 0 empty empty empty 17 7 0 10 -262144
-1 -1;
#X msg 172 38 99;
#X msg 238 40 109;
#X msg 297 38 114;
#X obj -119 283 + 42;
#X obj -23 279 + 20;
#X obj 262 273 + 30;
#X obj 128 280 + 82;
#X obj 510 226 route destroy-neighbourhood;
#X floatatom 508 102 5 0 0 0 - - -;
#X obj 508 164 bng 15 250 50 0 empty empty empty 17 7 0 10 -262144
-1 -1;
#X obj 512 134 pgmout 6;
#X msg 506 40 117;
#X connect 0 0 1 0;
#X connect 0 1 1 1;
#X connect 1 0 3 0;
#X connect 2 0 0 0;
#X connect 3 0 18 0;
#X connect 3 0 21 0;
#X connect 3 0 35 0;
#X connect 3 0 36 0;
#X connect 3 0 37 0;
#X connect 3 0 99 0;
#X connect 4 0 31 0;
#X connect 4 1 31 1;
#X connect 5 0 4 1;
#X connect 6 0 4 2;
#X connect 8 0 32 0;
#X connect 8 0 91 0;
#X connect 9 0 4 0;
#X connect 11 0 16 0;
#X connect 11 0 17 0;
#X connect 11 0 86 0;
#X connect 11 0 94 0;
#X connect 11 0 92 0;
#X connect 11 0 93 0;
#X connect 11 0 87 0;
#X connect 11 0 103 0;
#X connect 12 0 5 0;
#X connect 13 0 6 0;
#X connect 16 0 14 0;
#X connect 17 0 15 0;
#X connect 18 0 95 0;
#X connect 20 0 95 1;
#X connect 21 0 96 0;
#X connect 22 0 96 1;
#X connect 23 0 30 0;
#X connect 23 1 30 1;
#X connect 24 0 23 1;
#X connect 25 0 23 2;
#X connect 27 0 23 0;
#X connect 28 0 24 0;
#X connect 29 0 25 0;
#X connect 33 0 34 0;
#X connect 33 0 88 0;
#X connect 35 0 75 0;
#X connect 35 0 98 0;
#X connect 36 0 83 0;
#X connect 36 0 97 0;
#X connect 37 0 61 0;
#X connect 37 0 84 0;
#X connect 38 0 72 0;
#X connect 38 1 72 1;
#X connect 39 0 38 1;
#X connect 40 0 38 2;
#X connect 42 0 38 0;
#X connect 43 0 39 0;
#X connect 44 0 40 0;
#X connect 45 0 98 1;
#X connect 46 0 97 1;
#X connect 47 0 73 0;
#X connect 47 1 73 1;
#X connect 48 0 47 1;
#X connect 49 0 47 2;
#X connect 51 0 47 0;
#X connect 52 0 48 0;
#X connect 53 0 49 0;
#X connect 54 0 74 0;
#X connect 54 1 74 1;
#X connect 55 0 54 1;
#X connect 56 0 54 2;
#X connect 58 0 54 0;
#X connect 59 0 55 0;
#X connect 60 0 56 0;
#X connect 61 0 58 0;
#X connect 62 0 61 1;
#X connect 63 0 64 1;
#X connect 64 0 69 0;
#X connect 65 0 80 0;
#X connect 65 1 80 1;
#X connect 66 0 65 1;
#X connect 67 0 65 2;
#X connect 69 0 65 0;
#X connect 70 0 66 0;
#X connect 71 0 67 0;
#X connect 76 0 77 0;
#X connect 76 0 89 0;
#X connect 78 0 79 0;
#X connect 78 0 85 0;
#X connect 81 0 82 0;
#X connect 81 0 90 0;
#X connect 85 0 51 0;
#X connect 86 0 81 0;
#X connect 87 0 78 0;
#X connect 88 0 27 0;
#X connect 89 0 42 0;
#X connect 90 0 58 0;
#X connect 91 0 9 0;
#X connect 92 0 8 0;
#X connect 93 0 33 0;
#X connect 94 0 76 0;
#X connect 95 0 9 0;
#X connect 96 0 27 0;
#X connect 97 0 51 0;
#X connect 98 0 42 0;
#X connect 99 0 64 0;
#X connect 100 0 101 0;
#X connect 100 0 102 0;
#X connect 101 0 64 0;
#X connect 103 0 100 0;
