#N canvas 2001 69 946 520 10;
#X declare -lib mrpeach;
#X obj -105 54 unpackOSC;
#X obj -105 81 pipelist;
#X obj -105 28 udpreceive 4242;
#X obj -114 360 makenote;
#X floatatom -81 330 0 0 0 0 - - -;
#X floatatom -44 330 0 0 0 0 - - -;
#X text -121 311 pitch;
#X floatatom 170 95 5 0 0 0 - - -;
#X floatatom -117 331 5 0 0 0 - - -;
#X obj -103 3 import mrpeach;
#X obj 198 4 loadbang;
#X obj -81 311 r vel;
#X obj -44 311 r len;
#X obj 44 60 s vel;
#X obj 93 58 s len;
#X msg 43 32 100;
#X obj -120 234 route boundary;
#X floatatom -97 261 5 0 0 0 - - -;
#X obj -21 234 route hitblock;
#X floatatom -3 256 5 0 0 0 - - -;
#X obj 13 362 makenote;
#X floatatom 46 332 0 0 0 0 - - -;
#X floatatom 83 332 0 0 0 0 - - -;
#X text 6 313 pitch;
#X floatatom 10 333 5 0 0 0 - - -;
#X obj 46 313 r vel;
#X obj 83 313 r len;
#X obj 13 388 noteout 2;
#X obj -114 386 noteout 1;
#X obj 172 124 pgmout 1;
#X floatatom 246 101 5 0 0 0 - - -;
#X obj 250 133 pgmout 2;
#X obj 117 227 route change-candidate;
#X obj 263 201 route backtrack;
#X obj 133 357 makenote;
#X floatatom 166 327 0 0 0 0 - - -;
#X floatatom 203 327 0 0 0 0 - - -;
#X text 126 308 pitch;
#X floatatom 130 329 5 0 0 0 - - -;
#X obj 166 308 r vel;
#X obj 203 308 r len;
#X floatatom 150 255 5 0 0 0 - - -;
#X floatatom 291 269 5 0 0 0 - - -;
#X obj 256 401 makenote;
#X floatatom 289 371 0 0 0 0 - - -;
#X floatatom 319 370 0 0 0 0 - - -;
#X text 249 352 pitch;
#X floatatom 253 372 5 0 0 0 - - -;
#X obj 289 352 r vel;
#X obj 326 352 r len;
#X obj 384 387 makenote;
#X floatatom 417 357 0 0 0 0 - - -;
#X floatatom 454 364 0 0 0 0 - - -;
#X text 377 338 pitch;
#X floatatom 381 358 5 0 0 0 - - -;
#X obj 417 338 r vel;
#X obj 454 338 r len;
#X obj 375 280 + 30;
#X floatatom 397 258 5 0 0 0 - - -;
#X floatatom 552 251 5 0 0 0 - - -;
#X obj 532 274 + 10;
#X obj 528 353 makenote;
#X floatatom 561 323 0 0 0 0 - - -;
#X floatatom 598 323 0 0 0 0 - - -;
#X text 521 304 pitch;
#X floatatom 525 324 5 0 0 0 - - -;
#X obj 561 304 r vel;
#X obj 598 304 r len;
#X obj 133 383 noteout 3;
#X obj 256 427 noteout 4;
#X obj 384 413 noteout 5;
#X obj 104 262 bng 15 250 50 0 empty empty empty 17 7 0 10 -262144
-1 -1;
#X floatatom 312 103 5 0 0 0 - - -;
#X obj 316 135 pgmout 3;
#X floatatom 379 107 5 0 0 0 - - -;
#X obj 380 135 pgmout 4;
#X obj 528 379 noteout 6;
#X floatatom 446 103 5 0 0 0 - - -;
#X obj 450 135 pgmout 5;
#X obj 252 271 bng 15 250 50 0 empty empty empty 17 7 0 10 -262144
-1 -1;
#X obj 359 252 bng 15 250 50 0 empty empty empty 17 7 0 10 -262144
-1 -1;
#X obj 384 162 bng 15 250 50 0 empty empty empty 17 7 0 10 -262144
-1 -1;
#X msg 444 41 121;
#X obj 255 159 bng 15 250 50 0 empty empty empty 17 7 0 10 -262144
-1 -1;
#X obj 323 159 bng 15 250 50 0 empty empty empty 17 7 0 10 -262144
-1 -1;
#X obj 451 161 bng 15 250 50 0 empty empty empty 17 7 0 10 -262144
-1 -1;
#X obj 170 154 bng 15 250 50 0 empty empty empty 17 7 0 10 -262144
-1 -1;
#X msg 238 40 109;
#X msg 297 38 114;
#X obj -23 279 + 20;
#X obj 128 280 + 82;
#X obj 510 226 route destroy-neighbourhood;
#X floatatom 508 102 5 0 0 0 - - -;
#X obj 508 164 bng 15 250 50 0 empty empty empty 17 7 0 10 -262144
-1 -1;
#X obj 512 134 pgmout 6;
#X msg 507 39 117;
#X obj -105 107 routeOSC /rhombrick.tiling;
#N canvas 630 195 450 390 diatonic 0;
#X obj 132 32 inlet;
#X obj 135 59 int;
#X obj 134 86 % 7;
#X obj 132 134 route 0 1 2 3 4 5 6;
#X msg 130 165 0;
#X msg 161 166 2;
#X msg 192 165 4;
#X msg 221 164 5;
#X msg 253 166 7;
#X msg 283 167 9;
#X msg 314 168 11;
#X obj 104 350 outlet;
#X text 290 100 Octave;
#X text 28 166 Note of Scale;
#X obj 262 100 int;
#X obj 124 282 expr $i1 + ($i2 * 12);
#X obj 262 78 / 7;
#X obj 233 227 t b;
#X obj 124 312 expr pow(2.0 \, $i1/12.0);
#X connect 0 0 1 0;
#X connect 1 0 2 0;
#X connect 1 0 16 0;
#X connect 2 0 3 0;
#X connect 3 0 4 0;
#X connect 3 1 5 0;
#X connect 3 2 6 0;
#X connect 3 3 7 0;
#X connect 3 4 8 0;
#X connect 3 5 9 0;
#X connect 3 6 10 0;
#X connect 4 0 15 0;
#X connect 5 0 15 0;
#X connect 6 0 15 0;
#X connect 7 0 15 0;
#X connect 8 0 15 0;
#X connect 9 0 15 0;
#X connect 10 0 15 0;
#X connect 14 0 15 1;
#X connect 14 0 17 0;
#X connect 15 0 11 0;
#X connect 16 0 14 0;
#X connect 17 0 15 0;
#X restore 254 320 pd diatonic;
#X obj 376 211 route make-tile;
#X floatatom 625 31 5 0 0 0 - - -;
#X obj 272 231 route 1;
#X obj 661 122 print other;
#N canvas 630 195 450 390 diatonic 0;
#X obj 132 32 inlet;
#X obj 135 59 int;
#X obj 134 86 % 7;
#X obj 132 134 route 0 1 2 3 4 5 6;
#X msg 130 165 0;
#X msg 161 166 2;
#X msg 192 165 4;
#X msg 221 164 5;
#X msg 253 166 7;
#X msg 283 167 9;
#X msg 314 168 11;
#X obj 104 350 outlet;
#X text 290 100 Octave;
#X text 28 166 Note of Scale;
#X obj 262 100 int;
#X obj 124 282 expr $i1 + ($i2 * 12);
#X obj 262 78 / 7;
#X obj 233 227 t b;
#X obj 124 312 expr pow(2.0 \, $i1/12.0);
#X connect 0 0 1 0;
#X connect 1 0 2 0;
#X connect 1 0 16 0;
#X connect 2 0 3 0;
#X connect 3 0 4 0;
#X connect 3 1 5 0;
#X connect 3 2 6 0;
#X connect 3 3 7 0;
#X connect 3 4 8 0;
#X connect 3 5 9 0;
#X connect 3 6 10 0;
#X connect 4 0 15 0;
#X connect 5 0 15 0;
#X connect 6 0 15 0;
#X connect 7 0 15 0;
#X connect 8 0 15 0;
#X connect 9 0 15 0;
#X connect 10 0 15 0;
#X connect 14 0 15 1;
#X connect 14 0 17 0;
#X connect 15 0 11 0;
#X connect 16 0 14 0;
#X connect 17 0 15 0;
#X restore 376 309 pd diatonic;
#X obj 264 289 + 28;
#X obj 322 228 change;
#X obj 376 235 change;
#X msg 363 40 47;
#X msg 172 38 100;
#X obj -119 283 + 43;
#X msg 94 33 200;
#X connect 0 0 1 0;
#X connect 0 1 1 1;
#X connect 1 0 96 0;
#X connect 2 0 0 0;
#X connect 3 0 28 0;
#X connect 3 1 28 1;
#X connect 4 0 3 1;
#X connect 5 0 3 2;
#X connect 7 0 29 0;
#X connect 7 0 86 0;
#X connect 8 0 3 0;
#X connect 10 0 15 0;
#X connect 10 0 109 0;
#X connect 10 0 82 0;
#X connect 10 0 88 0;
#X connect 10 0 107 0;
#X connect 10 0 87 0;
#X connect 10 0 106 0;
#X connect 10 0 95 0;
#X connect 11 0 4 0;
#X connect 12 0 5 0;
#X connect 15 0 13 0;
#X connect 16 0 108 0;
#X connect 17 0 108 1;
#X connect 18 0 89 0;
#X connect 19 0 89 1;
#X connect 20 0 27 0;
#X connect 20 1 27 1;
#X connect 21 0 20 1;
#X connect 22 0 20 2;
#X connect 24 0 20 0;
#X connect 25 0 21 0;
#X connect 26 0 22 0;
#X connect 30 0 31 0;
#X connect 30 0 83 0;
#X connect 32 0 71 0;
#X connect 32 0 90 0;
#X connect 33 0 79 0;
#X connect 33 0 100 0;
#X connect 33 0 104 0;
#X connect 34 0 68 0;
#X connect 34 1 68 1;
#X connect 35 0 34 1;
#X connect 36 0 34 2;
#X connect 38 0 34 0;
#X connect 39 0 35 0;
#X connect 40 0 36 0;
#X connect 41 0 90 1;
#X connect 42 0 103 1;
#X connect 43 0 69 0;
#X connect 43 1 69 1;
#X connect 44 0 43 1;
#X connect 45 0 43 2;
#X connect 47 0 43 0;
#X connect 48 0 44 0;
#X connect 49 0 45 0;
#X connect 50 0 70 0;
#X connect 50 1 70 1;
#X connect 51 0 50 1;
#X connect 52 0 50 2;
#X connect 54 0 50 0;
#X connect 55 0 51 0;
#X connect 56 0 52 0;
#X connect 57 0 102 0;
#X connect 58 0 57 1;
#X connect 59 0 60 1;
#X connect 60 0 65 0;
#X connect 61 0 76 0;
#X connect 61 1 76 1;
#X connect 62 0 61 1;
#X connect 63 0 61 2;
#X connect 65 0 61 0;
#X connect 66 0 62 0;
#X connect 67 0 63 0;
#X connect 72 0 73 0;
#X connect 72 0 84 0;
#X connect 74 0 75 0;
#X connect 74 0 81 0;
#X connect 77 0 78 0;
#X connect 77 0 85 0;
#X connect 81 0 47 0;
#X connect 82 0 77 0;
#X connect 83 0 24 0;
#X connect 84 0 38 0;
#X connect 85 0 54 0;
#X connect 86 0 8 0;
#X connect 87 0 30 0;
#X connect 88 0 72 0;
#X connect 89 0 24 0;
#X connect 90 0 38 0;
#X connect 91 0 60 0;
#X connect 92 0 93 0;
#X connect 92 0 94 0;
#X connect 93 0 60 0;
#X connect 95 0 92 0;
#X connect 96 0 16 0;
#X connect 96 0 18 0;
#X connect 96 0 32 0;
#X connect 96 0 33 0;
#X connect 96 0 91 0;
#X connect 96 0 98 0;
#X connect 97 0 47 0;
#X connect 98 0 80 0;
#X connect 98 0 105 0;
#X connect 100 0 108 0;
#X connect 102 0 54 0;
#X connect 103 0 97 0;
#X connect 104 0 103 0;
#X connect 105 0 57 0;
#X connect 106 0 74 0;
#X connect 107 0 7 0;
#X connect 108 0 8 0;
#X connect 109 0 14 0;
